<?xml version="1.0" encoding="UTF-8"?>
<svg width="64" height="64" viewBox="0 0 64 64" fill="none" xmlns="http://www.w3.org/2000/svg">
  <!-- 背景圆形 -->
  <circle cx="32" cy="32" r="32" fill="url(#gradient)" />
  
  <!-- 剪贴板背景 -->
  <rect x="16" y="12" width="32" height="40" rx="3" fill="#ffffff" stroke="#e5e7eb" stroke-width="1"/>
  
  <!-- 剪贴板夹子 -->
  <rect x="26" y="8" width="12" height="8" rx="2" fill="#6366f1" stroke="#ffffff" stroke-width="1"/>
  
  <!-- 文档线条 -->
  <line x1="22" y1="22" x2="42" y2="22" stroke="#9ca3af" stroke-width="1.5" stroke-linecap="round"/>
  <line x1="22" y1="28" x2="38" y2="28" stroke="#9ca3af" stroke-width="1.5" stroke-linecap="round"/>
  <line x1="22" y1="34" x2="40" y2="34" stroke="#9ca3af" stroke-width="1.5" stroke-linecap="round"/>
  
  <!-- 复制符号 (双重方框) -->
  <rect x="22" y="38" width="8" height="8" rx="1" fill="none" stroke="#6366f1" stroke-width="1.5"/>
  <rect x="25" y="41" width="8" height="8" rx="1" fill="none" stroke="#8b5cf6" stroke-width="1.5"/>
  
  <!-- 同步箭头 -->
  <g transform="translate(36, 40)">
    <!-- 向右箭头 -->
    <path d="M2 4 L6 2 L6 3.5 L10 3.5 L10 4.5 L6 4.5 L6 6 Z" fill="#10b981"/>
    <!-- 向左箭头 -->
    <path d="M10 8 L6 10 L6 8.5 L2 8.5 L2 7.5 L6 7.5 L6 6 Z" fill="#10b981"/>
  </g>
  
  <!-- 渐变定义 -->
  <defs>
    <linearGradient id="gradient" x1="0%" y1="0%" x2="100%" y2="100%">
      <stop offset="0%" style="stop-color:#3b82f6;stop-opacity:1" />
      <stop offset="100%" style="stop-color:#1d4ed8;stop-opacity:1" />
    </linearGradient>
  </defs>
</svg>